<?xml version="1.0" encoding="UTF-8" standalone="no"?>
<svg
   xmlns:dc="http://purl.org/dc/elements/1.1/"
   xmlns:cc="http://creativecommons.org/ns#"
   xmlns:rdf="http://www.w3.org/1999/02/22-rdf-syntax-ns#"
   xmlns:svg="http://www.w3.org/2000/svg"
   xmlns="http://www.w3.org/2000/svg"
   xmlns:sodipodi="http://sodipodi.sourceforge.net/DTD/sodipodi-0.dtd"
   xmlns:inkscape="http://www.inkscape.org/namespaces/inkscape"
   width="210mm"
   height="210mm"
   viewBox="0 0 210 210"
   version="1.1"
   id="svg8"
   inkscape:version="1.0rc1 (09960d6, 2020-04-09)"
   sodipodi:docname="Utsukushima red gate ink.svg">
  <defs
     id="defs2" />
  <sodipodi:namedview
     id="base"
     pagecolor="#ffffff"
     bordercolor="#666666"
     borderopacity="1.0"
     inkscape:pageopacity="0.0"
     inkscape:pageshadow="2"
     inkscape:zoom="0.35"
     inkscape:cx="297.14286"
     inkscape:cy="560"
     inkscape:document-units="mm"
     inkscape:current-layer="layer2"
     inkscape:document-rotation="0"
     showgrid="false"
     inkscape:window-width="1232"
     inkscape:window-height="755"
     inkscape:window-x="1553"
     inkscape:window-y="119"
     inkscape:window-maximized="0" />
  <metadata
     id="metadata5">
    <rdf:RDF>
      <cc:Work
         rdf:about="">
        <dc:format>image/svg+xml</dc:format>
        <dc:type
           rdf:resource="http://purl.org/dc/dcmitype/StillImage" />
        <dc:title />
      </cc:Work>
    </rdf:RDF>
  </metadata>
  <g
     inkscape:label="White Background"
     id="layer2"
     inkscape:groupmode="layer">
    <rect
       y="1.511905"
       x="1.5119045"
       height="208.64287"
       width="210.15477"
       id="rect19"
       style="fill:#e2e2e2;opacity:0.93;stroke:#ffffff;fill-opacity:1" />
  </g>
  <g
     sodipodi:insensitive="true"
     inkscape:label="Layer 1"
     inkscape:groupmode="layer"
     id="layer1">
    <g
       id="g947"
       transform="matrix(2.9368301,0,0,2.8806636,10.998597,17.860152)"
       style="fill:#ff0000">
      <g
         id="g931"
         style="fill:#ff0000">
        <path
           id="path929"
           d="m 51.015,54.492 a 17.351,17.351 0 0 0 4.226,-0.522 15.4,15.4 0 0 1 5.635,-0.348 1,1 0 1 0 0.248,-1.984 17.339,17.339 0 0 0 -6.367,0.392 15.4,15.4 0 0 1 -3.92,0.452 l -0.055,-2.223 c 0.5,-0.08 0.993,-0.172 1.461,-0.289 a 15.5,15.5 0 0 1 7.515,0 l 1,0.25 a 1,1 0 1 0 0.484,-1.94 l -1,-0.25 a 17.481,17.481 0 0 0 -8.486,0 q -0.5,0.124 -1.025,0.218 L 50.574,41.975 A 1,1 0 0 0 49.574,41 H 49.55 a 1,1 0 0 0 -0.975,1.025 l 0.2,7.975 h -3.549 l 0.525,-21 h 2.5 l 0.226,9.025 a 1,1 0 0 0 1,0.975 H 49.5 a 1,1 0 0 0 0.975,-1.025 L 50.25,29 H 58 a 1,1 0 0 0 1,-1 V 24 A 1,1 0 0 0 58,23 H 50.1 L 50.025,20 H 51 a 1,1 0 0 0 1,-1 v -2.685 c 0.779,-0.107 1.558,-0.217 2.33,-0.35 a 1,1 0 0 0 0.8,-0.761 l 1.059,-4.6 c 0.548,-0.109 1.1,-0.2 1.646,-0.319 l 1.377,-0.306 a 1,1 0 0 0 0.731,-0.66 l 2,-6 A 1,1 0 0 0 60.708,2.045 70.078,70.078 0 0 1 40.56,5 H 36 a 1,1 0 0 0 0,2 h 4.56 A 72.059,72.059 0 0 0 59.452,4.482 L 58.23,8.146 57.406,8.33 A 70.268,70.268 0 0 1 42.191,10 H 21.809 A 70.262,70.262 0 0 1 6.594,8.33 L 5.77,8.146 4.548,4.482 A 72.107,72.107 0 0 0 23.44,7 H 32 A 1,1 0 0 0 32,5 H 23.44 A 70.083,70.083 0 0 1 3.287,2.042 1,1 0 0 0 2.051,3.316 l 2,6 a 1,1 0 0 0 0.732,0.66 l 1.378,0.306 c 0.545,0.121 1.1,0.21 1.644,0.319 l 1.06,4.6 a 1,1 0 0 0 0.8,0.761 c 0.772,0.133 1.551,0.243 2.33,0.35 V 19 a 1,1 0 0 0 1,1 H 13.97 L 13.9,23 H 6 a 1,1 0 0 0 -1,1 v 4 a 1,1 0 0 0 1,1 h 12.25 l 0.525,21 h -3.55 l 0.449,-17.975 a 1.0003125,1.0003125 0 1 0 -2,-0.05 L 13.268,48.248 Q 12.741,48.155 12.242,48.03 a 17.336,17.336 0 0 0 -8.486,0 l -1,0.25 a 1,1 0 1 0 0.486,1.94 l 1,-0.25 a 15.314,15.314 0 0 1 7.514,0 c 0.472,0.118 0.963,0.21 1.461,0.29 l -0.035,1.409 A 17.144,17.144 0 0 0 6.756,52.03 l -4,1 A 1,1 0 0 0 3,55 0.976,0.976 0 0 0 3.244,54.97 l 4,-1 a 15.13,15.13 0 0 1 5.89,-0.291 l -0.063,2.532 C 12.795,56.157 12.519,56.099 12.244,56.03 a 17.336,17.336 0 0 0 -8.486,0 l -1,0.25 a 1,1 0 1 0 0.486,1.94 l 1,-0.25 a 15.314,15.314 0 0 1 7.514,0 17.336,17.336 0 0 0 8.486,0 15.314,15.314 0 0 1 7.514,0 17.245,17.245 0 0 0 8.485,0 1,1 0 1 0 -0.484,-1.94 15.318,15.318 0 0 1 -7.515,0 17.293,17.293 0 0 0 -7.323,-0.247 l -0.035,-1.411 a 17.571,17.571 0 0 0 2.358,-0.4 15.314,15.314 0 0 1 7.514,0 17.245,17.245 0 0 0 8.485,0 15.371,15.371 0 0 1 3.894,-0.457 l -0.056,2.269 A 17.376,17.376 0 0 0 40,55.5 a 1,1 0 0 0 0,2 15.5,15.5 0 0 1 3.757,0.47 l 0.067,0.014 h 0.007 a 17.434,17.434 0 0 0 8.412,-0.016 15.5,15.5 0 0 1 7.515,0 l 1,0.25 a 1,1 0 1 0 0.484,-1.94 l -1,-0.25 a 17.481,17.481 0 0 0 -8.486,0 c -0.274,0.069 -0.55,0.127 -0.827,0.18 l -0.042,-1.722 c 0.043,0.002 0.085,0.006 0.128,0.006 z M 48.1,23 h -2.2 l 0.075,-3 h 2.048 z M 35,23 v -6 h 7 v 2 a 1,1 0 0 0 1,1 h 0.974 L 43.9,23 Z m -4,-6 h 2 v 6 h -2 z m 19,1 h -6 v -1.039 q 3.009,-0.075 6,-0.4 z M 9.954,11.017 A 72.34,72.34 0 0 0 21.809,12 h 20.382 a 72.248,72.248 0 0 0 11.855,-0.983 l -0.71,3.087 A 69.765,69.765 0 0 1 42.19,15 H 21.81 A 69.743,69.743 0 0 1 10.665,14.1 Z M 20,16.961 V 18 h -6 v -1.442 q 2.988,0.327 6,0.403 z M 15.975,20 h 2.05 L 18.1,23 H 15.9 Z M 7,25 h 16 a 1,1 0 0 0 0,-2 H 20.1 L 20.025,20 H 21 a 1,1 0 0 0 1,-1 v -2 h 7 v 6 h -2 a 1,1 0 0 0 0,2 h 30 v 2 H 7 Z m 33.969,4 -0.616,0.72 a 11,11 0 0 1 -16.705,0 L 23.032,29 Z M 15.063,56.469 15.175,52 h 3.65 l 0.105,4.211 a 15.3,15.3 0 0 1 -3.867,0.258 z m 23.7,-4.439 a 15.318,15.318 0 0 1 -7.515,0 17.336,17.336 0 0 0 -8.486,0 15.6,15.6 0 0 1 -1.923,0.339 L 20.777,49.855 A 15.381,15.381 0 0 1 24,49.5 a 1,1 0 0 0 0,-2 17.364,17.364 0 0 0 -3.279,0.319 L 20.25,29 h 0.15 l 1.733,2.021 a 13,13 0 0 0 19.741,0 L 43.6,29.01 V 29 h 0.15 l -0.471,18.819 a 17.3,17.3 0 0 0 -7.521,0.211 15.306,15.306 0 0 1 -7.515,0 1,1 0 0 0 -0.486,1.94 17.245,17.245 0 0 0 8.485,0 15.3,15.3 0 0 1 6.986,-0.116 l -0.042,1.661 A 17.406,17.406 0 0 0 38.758,52.03 Z M 45.075,56.211 45.176,52 h 3.648 l 0.112,4.464 A 15.524,15.524 0 0 1 45.07,56.211 Z"
           inkscape:connector-curvature="0"
           style="fill:#ff0000" />
      </g>
    </g>
  </g>
</svg>
